<svg width="16" height="16" viewBox="0 0 16 16" xmlns="http://www.w3.org/2000/svg"><path d="M5.128 0h5.744c1.783 0 2.43.186 3.082.534.652.349 1.163.86 1.512 1.512.348.652.534 1.299.534 3.082v5.744c0 1.783-.186 2.43-.534 3.082a3.635 3.635 0 0 1-1.512 1.512c-.652.348-1.299.534-3.082.534H5.128c-1.783 0-2.43-.186-3.082-.534a3.635 3.635 0 0 1-1.512-1.512C.186 13.302 0 12.655 0 10.872V5.128c0-1.783.186-2.43.534-3.082A3.635 3.635 0 0 1 2.046.534C2.698.186 3.345 0 5.128 0zM4 12.848h2.824v-.456H5.82V4.456h1.004V4H4v.456h1.004v7.936H4v.456zM8.862 13c1.293 0 2.134-.621 2.134-1.99V4.456H12V4H8.925v.456h1.255V11.1c0 1.039-.49 1.47-1.318 1.47-.414 0-.665-.076-.854-.14v-.037a.554.554 0 0 0 .415-.558c0-.342-.226-.609-.578-.609-.401 0-.64.292-.64.672 0 .621.552 1.103 1.657 1.103z" fill-rule="evenodd"/></svg>