<svg width="32" height="32" viewBox="0 0 32 32" xmlns="http://www.w3.org/2000/svg"><title>icon-dribbble</title><g fill="none" fill-rule="evenodd"><path d="M24.16 26.12c2.25-1.816 3.884-4.37 4.532-7.294-1.7-.28-6.548-.928-10.223.112-4.533 1.28-8.315 5.75-8.97 6.406-.58.58-1.26.843-2.255.267C9.555 27.718 12.628 29 16 29c1.604 0 3.14-.29 4.558-.82-.57-3.74-1.445-5.512-1.745-6.305-.344-.906-.483-2.375 1.093-2.875 1.577-.5 2.47.844 2.47.844s1.193 3.47 1.783 6.277zm4.796-11.192c-.19-2.323-.99-4.474-2.24-6.29-1.172 1.13-4.492 3.984-9.622 5.612-6.5 2.063-12.25 2.094-12.25 2.094s-1.746-.244-1.75-1.908C3.03 14.95 3 15.47 3 16c0 3.34 1.26 6.386 3.33 8.688-.35-.88.232-1.907.232-1.907s4.663-5.986 10.844-7.654c4.783-1.29 9.328-.664 11.55-.197zm-4.747-9.01C21.97 4.095 19.11 3 16 3c-.71 0-1.41.057-2.09.167.898 1.324 2.252 3.354 2.56 3.99.37.766.898 2.043.45 2.93 3.655-1.347 6.095-3.147 7.29-4.168zm-21 7.744c.733-4.044 3.34-7.436 6.885-9.247.744.934 1.968 2.59 2.654 4.147.544 1.24 1.15 1.982 1.796 2.29-5.393 1.538-9.953 1.617-9.953 1.617s-1.032.13-1.384 1.19z" fill="#FFE3EE"/><path d="M15.25 9c-2.125-4.062-3.813-5.813-4.813-6.938C7.5 3.188 1 7.5 1 16s7.188 15 15 15c4.438 0 6.625-1.688 6.625-1.688s-.313-3.687-2.063-8.5" stroke="#BA2961" stroke-width="2" stroke-linecap="round" stroke-linejoin="round"/><path d="M5.063 14.344c2.406 0 7.467-.437 12.937-2.53 5.47-2.096 7.594-4.845 8.844-6.158C23.937 2.47 19.094.594 14.47 1.063M8.156 23.875c2-2.22 6-6.313 11.063-7.156 5.06-.846 9.592-.033 11.685.75.282-3.158-.28-5.627-1.53-8.283m-3.28 17.907c1.31-1.344 3.03-3.125 3.81-5.532" stroke="#BA2961" stroke-width="2" stroke-linecap="round" stroke-linejoin="round"/></g></svg>