<svg width="32" height="32" viewBox="0 0 32 32" xmlns="http://www.w3.org/2000/svg"><title>icon-linkedin</title><g fill="none" fill-rule="evenodd"><path d="M3 4.003C3 3.45 3.45 3 4.003 3h23.994C28.55 3 29 3.45 29 4.003v23.994C29 28.55 28.55 29 27.997 29H4.003C3.45 29 3 28.55 3 27.997V4.003zm4 8.992C7 11.893 7.888 11 9 11c1.105 0 2 .893 2 1.995V29H7V12.995zM9 11c1.105 0 2-.895 2-2s-.895-2-2-2-2 .895-2 2 .895 2 2 2zm4 2c0-1.105.888-2 2-2 1.105 0 2 .893 2 1 0 0 .996-1 2.998-1C23 11 26 14 26 18v10h-4V18c0-1-.616-3-2-3s-3 2-3 4v9h-4V13z" fill="#D1EFFF"/><path d="M15 26V13v5c0-1 2-5 5-5 2 0 4 2 4 5v8" stroke="#0077B5" stroke-width="2" stroke-linecap="round" stroke-linejoin="round"/><path d="M9 13v18h20c1 0 2-1 2-2.052V3c0-1-1-2-2-2H3C2 1 1 2 1 3v26c0 .687 1 2 2 2h2" stroke="#0077B5" stroke-width="2" stroke-linecap="round" stroke-linejoin="round"/><circle fill="#0077B5" cx="9" cy="9" r="1"/></g></svg>