<svg height="32" viewBox="0 0 32 32" width="32" xmlns="http://www.w3.org/2000/svg"><g style="stroke:#4d4d4d;stroke-width:2;fill:none;fill-rule:evenodd;stroke-linecap:round;stroke-linejoin:round"><path d="m15.25 9.00842086c-2.125-4.062-3.813-5.813-4.813-6.938-2.937 1.126-9.437 5.438-9.437 13.93800004 0 8.5 7.188 15 15 15 4.438 0 6.625-1.688 6.625-1.688s-.313-3.687-2.063-8.5"/><path d="m26.094 27.1014209c1.31-1.344 3.03-3.125 3.81-5.532"/><path d="m5.063 14.3524209c2.406 0 7.467-.437 12.937-2.53 5.47-2.09600004 7.594-4.84500004 8.844-6.15800004-2.907-3.186-7.75-5.062-12.374-4.593"/><path d="m8.156 23.8834209c2-2.22 6-6.313 11.063-7.156 5.06-.846 9.592-.033 11.685.75.282-3.158-.28-5.627-1.53-8.28300004"/></g></svg>