<svg width="32" height="32" viewBox="0 0 32 32" xmlns="http://www.w3.org/2000/svg"><title>link-dribbble</title><g stroke="#4D4D4D" stroke-width="2" fill="none" fill-rule="evenodd" stroke-linecap="round" stroke-linejoin="round"><path d="M15.25 9c-2.125-4.062-3.813-5.813-4.813-6.938C7.5 3.188 1 7.5 1 16s7.188 15 15 15c4.438 0 6.625-1.688 6.625-1.688s-.313-3.687-2.063-8.5"/><path d="M5.063 14.344c2.406 0 7.467-.437 12.937-2.53 5.47-2.096 7.594-4.845 8.844-6.158C23.937 2.47 19.094.594 14.47 1.063M8.156 23.875c2-2.22 6-6.313 11.063-7.156 5.06-.846 9.592-.033 11.685.75.282-3.158-.28-5.627-1.53-8.283m-3.28 17.907c1.31-1.344 3.03-3.125 3.81-5.532"/></g></svg>