<svg width="32" height="32" viewbox="0 0 32 32" xmlns="http://www.w3.org/2000/svg"><title>icon-github</title><g fill="none" fill-rule="evenodd"><path d="M11.06 28.028c-.58-.237-1.135-.515-1.667-.83.66.195 1.235.194 1.623.146C13.53 27.03 15 26.544 15 24.75c0-1.938 1.242-3.444.688-4.78-.688-1.657-5.672-.282-5.672-2.923 0-2.266 1.515-3.563 1.906-4.578.228-.595-.203-1.11-.203-1.11l.904.64H16V8h-2.656S11.53 7 10.5 6.53c-.67-.304-1.75-.733-2.656-.14-.906.594-.844 1.407-.688 2.11l.688 3.094S6.03 13.578 6.03 17.047c0 .05 0 2.36 1.314 3.14-2.204-1.03-2.876.74-2.94 1.696C3.506 20.117 3 18.118 3 16 3 8.82 8.82 3 16 3s13 5.82 13 13c0 5.215-3.07 9.714-7.504 11.784-.047-4.32-.512-5.253-.512-5.253S25.97 22 25.97 17.05c0-3.47-1.815-5.453-1.815-5.453l.688-3.094c.156-.702.218-1.515-.688-2.11-.906-.592-1.985-.163-2.656.14C20.47 7 18.655 8 18.655 8H16v4h3.375l.906-.64s-.43.516-.2 1.11c.39 1.014 1.905 2.31 1.905 4.577 0 2.64-4.984 1.266-5.672 2.922-.554 1.335 1.063 3.404 1.063 5.34 0 .607.068 2.604.104 3.606-.486.055-.98.083-1.48.083-.216 0-.43-.006-.644-.017-.47-.77-1.155-1.656-1.918-1.86-1.278-.34-2.21.7-2.38.904zm-5.717-4.58c.384.548.81 1.065 1.27 1.547-.29-.57-.2-.904-.77-1.245-.178-.107-.346-.205-.5-.303zm3.97-1.48s1.39.64 2.17.64c-.202.408-.108.486-.202 1.048-1.623-.093-1.966-1.687-1.966-1.687z" fill="#E7EDFA"/><path d="M13 28.97c1.312 1.5 1.187 1.343 3 2.03C6.78 31 .985 23.3 1 16 1 7.5 8 1 16 1c8.094-.016 15 6.5 15 15 0 8-5.906 12.97-10.47 14.313-2.06-2.313-.093-7-2.53-9.313 3 0 6-.97 6-4 0-3.03-2-5-2-5s1.063-4 1-4c.063 0-4 2-4 2h-6L9 8l1 4s-1.97 2.03-1.97 5S11 21 14 21c-.438.344-1 2.28-1 3.97-5.562 1.718-4.375-2.626-6.687-3.22" stroke="#5F2A7F" stroke-width="2" stroke-linecap="round" stroke-linejoin="round"/></g></svg>
