<svg height="18" viewBox="0 0 68 18" width="68" xmlns="http://www.w3.org/2000/svg">
	<path d="m24.8483735 7.12384336c0-1.03631431.2313155-1.81617336.6939465-2.33915741.4628476-.52319392 1.1977292-.78468595 2.2057277-.78468595 1.0077819 0 1.8819293.26422027 2.6222256.79245096.0101796.06967524.0153777.17166972.0153777.30619331s-.0361701.35614123-.1078606.66527265c-.0721237.3087117-.1695881.55782168-.2932596.74712008h-1.2956267c-.1849658-.33872242-.2828634-.65771751-.293043-.9567754-.1232383-.01972733-.226334-.02980086-.3082041-.02980086-.3911571 0-.6688224.10472273-.8334289.31395833-.16439.20944546-.2464767.58783239-.2464767 1.13579041v.5678952h2.3599381v1.37503673h-2.3599381v4.22983289c.7712683.1492142 1.2956268.3435493 1.5730755.5827956l-.1539938 1.150481h-4.2728393l-.1539938-1.150481c.1440307-.1890885.4266775-.3586596.8483735-.5082934v-4.30433509h-.6785689l-.1698046-1.03127755c.2259008-.19916206.5089808-.31353859.8483735-.34375918zm9.5446446 2.12203928c-.7814479 0-1.3216173.14459711-1.6194251.43358148v3.42269138c.8327791.1492142 1.4034873.3584498 1.7121246.6274969l-.1544269 1.1506909h-4.4112388l-.1542104-1.1506909c.1438142-.1888786.4264609-.3586596.8483735-.5082935v-4.15470114c-.3601851-.11962316-.6428319-.28856463-.8483735-.50787376l.1542104-1.15132043c.5652935-.11920343 1.0742743-.17901501 1.5269423-.17901501.4524514 0 .827581.01007353 1.1260387.02980086v.94166511c.236297-.26904718.5397362-.49066482.9098843-.66527266.3703647-.17397824.7069418-.26128216 1.010381-.26128216.3032226 0 .5113632.0247641.6246385.07450215l-.0461332 1.94314179c-.2057581-.03001072-.4318756-.04512101-.6787854-.04512101zm1.0858834-.73218607c0-.14942402.0051981-.30850183.0155943-.47828277.9560175-.4980101 1.9843752-.74712008 3.0844234-.74712008 1.1002648 0 1.8897265.20168045 2.3677352.60525121.4782254.40336089.717338 1.07388018.717338 2.01008879v3.18344508c.3595354.0696752.6421822.1546706.8481569.2539369v1.3003247c-.5243585.2388266-1.2750509.3586596-2.2518608.3586596-.1030957-.2587638-.1901639-.572932-.262071-.9414552-.4424884.6281265-1.2442955.9414552-2.4062878.9414552-.6887484 0-1.2774334-.1939154-1.7658383-.5827956-.4886216-.3884605-.7329323-.9164813-.7329323-1.5840625s.228933-1.1932935.6863659-1.5771369c.4576496-.3832138 1.139034-.5752405 2.0439368-.5752405h1.6811527v-.71710934c0-.77755053-.4268941-1.16622086-1.2804657-1.16622086-.3188169 0-.5808878.03001072-.7862128.0898223-.021009.41868106-.0825199.74250305-.185399.97146597h-1.5113479c-.1750028-.34837622-.2622876-.79685813-.2622876-1.345026zm2.7760028 4.96226243c.524575 0 .9410729-.1500536 1.2497102-.4489017v-1.2254028h-1.0801222c-.7402963 0-1.1102278.2740839-1.1102278.8216222 0 .2495297.0797042.4541483.2393292.6130162.1589753.1597075.3931065.2396661.7013106.2396661zm10.4408406 1.4043003-2.7300862-3.8707536 1.696747-2.13705718c-.1747862-.09968597-.2984577-.20419883-.3701482-.31374846l.1537772-1.15111057h3.3934939l.1544269 1.15111057c-.226334.27891083-.6530115.49821996-1.2804656.65750764l-1.4805926 1.6440839 1.7428801 2.2268795c.6376338.1395604 1.0848871.3536229 1.3417599.6426072l-.1539937 1.150481zm-5.7226765-10.61120373c.5761229-.12927696 1.110661-.19391544 1.6042641-.19391544.493603 0 .9101009.0144807 1.249277.04470129v9.10164348c.4011202.1496338.683767.3192049.8485901.5082934l-.1542104 1.150481h-3.5479208l-.1539937-1.150481c.1435975-.1890885.4264609-.3586596.8481569-.5082934v-7.29323514c-.3599686-.11983302-.6426153-.28898436-.8481569-.50829349zm11.2407869 1.25537999v1.88312035h2.2057277v1.25562343h-2.2057277v3.78114116c0 .3189951.0461332.5508961.1388327.6948636.0920497.144807.3134021.2170006.6631911.2170006.3489225 0 .7251351-.0749218 1.1260387-.2243459l.4628476 1.166011c-.7918441.3886704-1.6014484.5823759-2.4294627.5823759-.8277976 0-1.3881096-.17125-1.6811526-.5154289-.2932595-.3437592-.4396727-.8442876-.4396727-1.5017953v-4.19982216h-.6939466l-.169588-.91186425c.1641733-.18887867.5033495-.37817707 1.0179615-.56810507.1232383-.81637559.4162813-1.36937036.8791289-1.65877446zm4.4309483.85196872c-.8583365 0-1.287613-.37586855-1.287613-1.12823526s.4292765-1.12844513 1.287613-1.12844513 1.2880462.37607842 1.2880462 1.12844513-.4297097 1.12823526-1.2880462 1.12823526zm-1.7504606 1.03106768c.5756897-.12906709 1.1104444-.19433516 1.6040474-.19433516.4938197 0 .9103175.01532016 1.2497102.04512101v5.96310949c.4004704.1496339.6835504.3194148.8481569.5082935l-.1539937 1.1506909h-3.5479208l-.1539938-1.1506909c.1438141-.1888787.4264609-.3586596.8481569-.5082935v-4.15470114c-.3599685-.11962316-.6426153-.2887745-.8481569-.50808363zm7.2883013 7.59242734c-1.2187382 0-2.121042-.3133288-2.7069113-.9412454-.5863026-.6277068-.8795621-1.5769271-.8795621-2.8474509 0-1.27010415.326614-2.24177998.9798421-2.91418805.6525783-.67261793 1.5908356-1.00882197 2.8147719-1.00882197 1.2237197 0 2.1307884.29884804 2.7225056.89696383.5910675.59748619.8867095 1.53159616.8867095 2.80211999 0 1.2701042-.3315956 2.2568903-.9950032 2.9593091-.6629746.7024188-1.6040475 1.0533134-2.8223525 1.0533134zm-1.3647182-3.9156648c0 1.5945558.4931698 2.3916238 1.4801593 2.3916238.5037827 0 .8765299-.1819532 1.1184582-.5456495.2414951-.3639063.3625676-.9588741.3625676-1.7863725 0-1.55405177-.5037827-2.33118257-1.5119978-2.33118257-.4931699 0-.8585531.17187959-1.0950667.51563877s-.3541206.9292831-.3541206 1.755942z" />
	<path d="m9.97097727 1.50503959c3.13870913-.04765353 6.16184233-.57056023 9.00125033-1.50033834l.0277724-.00470125-3.749702 7.46087638-2.0211903.33699381-.6257336 1.94909359 1.6353674-.27267223-.8288995 1.64885495-1.3191893.2207448-.3114782.9705935 1.1264915-.1878361-2.95177944 5.8733513v-16.49196871zm-.94195454 0 .01709071.0029917v16.49196871l-2.95177946-5.8733513 1.1264915.1878361-.31147821-.9705935-1.31918927-.2207448-.82889949-1.64885495 1.63536742.27267223-.62573366-1.94909359-2.02119023-.33699381-3.74970204-7.46087638.02777241.00470125c2.83940803.92977811 5.8625412 1.45268481 9.00125032 1.50033834z" />
</svg>
