<svg width="32" height="32" viewBox="0 0 32 32" xmlns="http://www.w3.org/2000/svg"><path d="M13 28.97c1.312 1.5 1.187 1.343 3 2.03C6.78 31 .985 23.3 1 16 1 7.5 8 1 16 1c8.094-.016 15 6.5 15 15 0 8-5.906 12.97-10.47 14.313-2.06-2.313-.093-7-2.53-9.313 3 0 6-.97 6-4 0-3.03-2-5-2-5s1.063-4 1-4c.063 0-4 1.5-4 1.5h-6L9 8l1 4s-1.97 2.03-1.97 5S11 21 14 21c-.438.344-1 2.28-1 3.97-5.562 1.718-4.375-2.626-6.687-3.22" stroke="#000" stroke-width="2" fill="none" fill-rule="evenodd" stroke-linecap="round" stroke-opacity=".7" stroke-linejoin="round"/></svg>